<svg class="diagram-root" style="background: #f5f6f6" xmlns="http://www.w3.org/2000/svg" xmlns:xlink="http://www.w3.org/1999/xlink"><style>.diagram-root { font-family: "Helvetica Neue", sans-serif; font-size: 12px; } .t { overflow: visible; } .t-bg { y: 40; fill: #fff;   } .th { fill: #005aa0;   } .tht { fill: #fff; font-size: 14px;  } .tf { fill: #323c46; overflow: visible; } .tf.pk { fill: #005aa0; font-weight: bold; } .tf.fk { font-weight: bold; } .ty { fill: #adb1b5; font-weight: normal; text-anchor: end; } .r { fill: transparent; stroke: #c3c3c3; stroke-width: 1; } .l { stroke: 1; } .i { fill: #c2c7ce; stroke: #c2c7ce; } .i.ix { fill: #afb3b6; stroke: #000; } .fa { fill: transparent; overflow: visible; } .fa .bg.hover { fill: #f7f7f7; } .c { cy: 12; r: 4; stroke: #d2d2dc; fill: #d2d2dc; } .hr { fill: transparent; stroke: #323c46; stroke-opacity: 0.035; stroke-width: 13; } .dc { stroke: #fa5a3c; fill: #fa5a3c; } .x { stroke: white; stroke-width: 1; } .hl .th { fill: #1b9bff; } .hl .tht {  } .fhl .bg { fill: #e7f4ff; } .fhls .bg {  } .r.hl { stroke: #1b9bff; } .dim { opacity: 0.25; }</style><g class="drawing-wrapper" transform="translate(28.560000000000002, 24.97) scale(1,1)"><g class="rs"><path d="M 174.59 227.89 m -1, 0 a 1,1 0 1,0 2,0 a 1,1 0 1,0 -2,0 M 174.59 227.89 m -0.5, 0 a 0.5,0.5 0 1,0 1,0 a 0.5,0.5 0 1,0 -1,0  M174.59 227.89 L174.59 227.89 186.59 227.89 M180.59 233.89 L180.59 233.89 180.59 221.89 M186.59 227.89 Q 346.9 227.89, 507.21 366.98 T 827.83 506.06 M 839.83 506.06 m -1, 0 a 1,1 0 1,0 2,0 a 1,1 0 1,0 -2,0 M 839.83 506.06 m -0.5, 0 a 0.5,0.5 0 1,0 1,0 a 0.5,0.5 0 1,0 -1,0  M839.83 506.06 L839.83 506.06 827.83 506.06 M833.83 512.06 L833.83 512.06 833.83 500.06" id="h2262747832" class="r"></path><path d="M 174.59 227.89 m -1, 0 a 1,1 0 1,0 2,0 a 1,1 0 1,0 -2,0 M 174.59 227.89 m -0.5, 0 a 0.5,0.5 0 1,0 1,0 a 0.5,0.5 0 1,0 -1,0  M174.59 227.89 L174.59 227.89 186.59 227.89 M180.59 233.89 L180.59 233.89 180.59 221.89 M186.59 227.89 Q 248.81 227.89, 311.03 448.53 T 435.47 669.1700000000001 M 447.47 669.1700000000001 m -1, 0 a 1,1 0 1,0 2,0 a 1,1 0 1,0 -2,0 M 447.47 669.1700000000001 m -0.5, 0 a 0.5,0.5 0 1,0 1,0 a 0.5,0.5 0 1,0 -1,0  M447.47 669.1700000000001 L447.47 669.1700000000001 435.47 669.1700000000001 M441.47 675.1700000000001 L441.47 675.1700000000001 441.47 663.1700000000001" id="h3263781281" class="r"></path><path d="M 174.59 227.89 m -1, 0 a 1,1 0 1,0 2,0 a 1,1 0 1,0 -2,0 M 174.59 227.89 m -0.5, 0 a 0.5,0.5 0 1,0 1,0 a 0.5,0.5 0 1,0 -1,0  M174.59 227.89 L174.59 227.89 186.59 227.89 M180.59 233.89 L180.59 233.89 180.59 221.89 M186.59 227.89 Q 339.54 227.89, 492.48 220.86 T 798.36 213.82999999999998 M 810.36 213.82999999999998 m -1, 0 a 1,1 0 1,0 2,0 a 1,1 0 1,0 -2,0 M 810.36 213.82999999999998 m -0.5, 0 a 0.5,0.5 0 1,0 1,0 a 0.5,0.5 0 1,0 -1,0  M810.36 213.82999999999998 L810.36 213.82999999999998 798.36 213.82999999999998 M804.36 219.82999999999998 L804.36 219.82999999999998 804.36 207.82999999999998" id="h3782673181" class="r"></path><path d="M -6.56 227.89 m -1, 0 a 1,1 0 1,0 2,0 a 1,1 0 1,0 -2,0 M -6.56 227.89 m -0.5, 0 a 0.5,0.5 0 1,0 1,0 a 0.5,0.5 0 1,0 -1,0  M-6.56 227.89 L-6.56 227.89 -18.56 227.89 M-12.559999999999999 233.89 L-12.559999999999999 233.89 -12.559999999999999 221.89 M-18.56 227.89 C -68.56 227.89, -101.16400000000002 599.3299999999999, 35.78 599.3299999999999 M 47.78 599.3299999999999 m -1, 0 a 1,1 0 1,0 2,0 a 1,1 0 1,0 -2,0 M 47.78 599.3299999999999 m -0.5, 0 a 0.5,0.5 0 1,0 1,0 a 0.5,0.5 0 1,0 -1,0  M47.78 599.3299999999999 L47.78 599.3299999999999 35.78 599.3299999999999 M41.78 605.3299999999999 L41.78 605.3299999999999 41.78 593.3299999999999" id="h3967566606" class="r"></path><path d="M 380.97 112.03 m -1, 0 a 1,1 0 1,0 2,0 a 1,1 0 1,0 -2,0 M 380.97 112.03 m -0.5, 0 a 0.5,0.5 0 1,0 1,0 a 0.5,0.5 0 1,0 -1,0  M380.97 112.03 L380.97 112.03 368.97 112.03 M374.97 118.03 L374.97 118.03 374.97 106.03 M368.97 112.03 Q 323.38 112.03, 277.78 169.96 T 186.59 227.89 M 174.59 227.89 m -1, 0 a 1,1 0 1,0 2,0 a 1,1 0 1,0 -2,0 M 174.59 227.89 m -0.5, 0 a 0.5,0.5 0 1,0 1,0 a 0.5,0.5 0 1,0 -1,0  M174.59 227.89 L174.59 227.89 186.59 227.89 M180.59 233.89 L180.59 233.89 180.59 221.89" id="h3735979215" class="r"></path><path d="M 569.47 112.03 m -1, 0 a 1,1 0 1,0 2,0 a 1,1 0 1,0 -2,0 M 569.47 112.03 m -0.5, 0 a 0.5,0.5 0 1,0 1,0 a 0.5,0.5 0 1,0 -1,0  M569.47 112.03 L569.47 112.03 581.47 112.03 M575.47 118.03 L575.47 118.03 575.47 106.03 M581.47 112.03 Q 643.06 112.03, 704.65 309.05 T 827.83 506.06 M 839.83 506.06 m -1, 0 a 1,1 0 1,0 2,0 a 1,1 0 1,0 -2,0 M 839.83 506.06 m -0.5, 0 a 0.5,0.5 0 1,0 1,0 a 0.5,0.5 0 1,0 -1,0  M839.83 506.06 L839.83 506.06 827.83 506.06 M833.83 512.06 L833.83 512.06 833.83 500.06" id="h2794990617" class="r"></path><path d="M 380.97 112.03 m -1, 0 a 1,1 0 1,0 2,0 a 1,1 0 1,0 -2,0 M 380.97 112.03 m -0.5, 0 a 0.5,0.5 0 1,0 1,0 a 0.5,0.5 0 1,0 -1,0  M380.97 112.03 L380.97 112.03 368.97 112.03 M374.97 118.03 L374.97 118.03 374.97 106.03 M368.97 112.03 C 318.97 112.03, 279.07000000000005 669.1700000000001, 435.47 669.1700000000001 M 447.47 669.1700000000001 m -1, 0 a 1,1 0 1,0 2,0 a 1,1 0 1,0 -2,0 M 447.47 669.1700000000001 m -0.5, 0 a 0.5,0.5 0 1,0 1,0 a 0.5,0.5 0 1,0 -1,0  M447.47 669.1700000000001 L447.47 669.1700000000001 435.47 669.1700000000001 M441.47 675.1700000000001 L441.47 675.1700000000001 441.47 663.1700000000001" id="h2528298765" class="r"></path></g><g class="hrs"></g><g class="ts"><svg width="181.15" height="225" x="-6.56" y="20.89" id="h3299212598" class="t"><rect height="40" width="181.15" class="th"></rect><text x="13" y="25" class="tht">Employees</text><rect height="185" width="181.15" class="t-bg"></rect><text x="13" y="61" class="tf pk">emp_no<tspan x="168.15" class="ty">INT</tspan></text><path d="M7,14A2,2 0 0,1 5,12A2,2 0 0,1 7,10A2,2 0 0,1 9,12A2,2 0 0,1 7,14M12.65,10C11.83,7.67 9.61,6 7, 6A6, 6 0 0, 0 1, 12A6, 6 0 0, 0 7, 18C9.61, 18 11.83, 16.33 12.65, 14H17V18H21V14H23V10H12.65Z" class="i pk" transform="translate(128.819921875, 48) scale(0.65)"></path><text x="13" y="86" class="tf">birth_date<tspan x="168.15" class="ty">DATE</tspan></text><text x="13" y="111" class="tf">first_name<tspan x="168.15" class="ty">VARCHAR(50)</tspan></text><text x="13" y="136" class="tf">last_name<tspan x="168.15" class="ty">VARCHAR(50)</tspan></text><text x="13" y="161" class="tf">gender<tspan x="168.15" class="ty">VARCHAR(20)</tspan></text><text x="13" y="186" class="tf">hire_date<tspan x="168.15" class="ty">DATE</tspan></text><text x="13" y="211" class="tf">...</text></svg><svg width="188.5" height="125" x="380.97" y="5.03" id="h3708248841" class="t"><rect height="40" width="188.5" class="th"></rect><text x="13" y="25" class="tht">Departments</text><rect height="85" width="188.5" class="t-bg"></rect><text x="13" y="61" class="tf pk">dept_no<tspan x="175.5" class="ty">VARCHAR(20)</tspan></text><path d="M7,14A2,2 0 0,1 5,12A2,2 0 0,1 7,10A2,2 0 0,1 9,12A2,2 0 0,1 7,14M12.65,10C11.83,7.67 9.61,6 7, 6A6, 6 0 0, 0 1, 12A6, 6 0 0, 0 7, 18C9.61, 18 11.83, 16.33 12.65, 14H17V18H21V14H23V10H12.65Z" class="i pk" transform="translate(76.375, 48) scale(0.65)"></path><text x="13" y="86" class="tf">dept_name<tspan x="175.5" class="ty">VARCHAR(30)</tspan></text><text x="13" y="111" class="tf">...</text></svg><svg width="279.9" height="200" x="839.83" y="324.06" id="h3353995054" class="t"><rect height="40" width="279.9" class="th"></rect><text x="13" y="25" class="tht">Dept_Emp</text><rect height="160" width="279.9" class="t-bg"></rect><text x="13" y="61" class="tf">emp_no<tspan x="266.9" class="ty">INT</tspan></text><text x="13" y="86" class="tf">dept_no<tspan x="266.9" class="ty">VARCHAR(20)</tspan></text><text x="13" y="111" class="tf">from_date<tspan x="266.9" class="ty">DATE</tspan></text><text x="13" y="136" class="tf">to_date<tspan x="266.9" class="ty">DATE</tspan></text><text x="13" y="161" class="tf">PRIMARY<tspan x="266.9" class="ty">KEY(emp_no,dept_no,from_date)</tspan></text><text x="13" y="186" class="tf">...</text></svg><svg width="279.9" height="200" x="447.47" y="487.17" id="h754932316" class="t"><rect height="40" width="279.9" class="th"></rect><text x="13" y="25" class="tht">Dept_Manager</text><rect height="160" width="279.9" class="t-bg"></rect><text x="13" y="61" class="tf">dept_no<tspan x="266.9" class="ty">VARCHAR(20)</tspan></text><text x="13" y="86" class="tf">emp_no<tspan x="266.9" class="ty">INT</tspan></text><text x="13" y="111" class="tf">from_date<tspan x="266.9" class="ty">DATE</tspan></text><text x="13" y="136" class="tf">to_date<tspan x="266.9" class="ty">DATE</tspan></text><text x="13" y="161" class="tf">PRIMARY<tspan x="266.9" class="ty">KEY(emp_no,dept_no,from_date)</tspan></text><text x="13" y="186" class="tf">...</text></svg><svg width="233.19" height="200" x="47.78" y="417.33" id="h3517680912" class="t"><rect height="40" width="233.19" class="th"></rect><text x="13" y="25" class="tht">Titles</text><rect height="160" width="233.19" class="t-bg"></rect><text x="13" y="61" class="tf">emp_no<tspan x="220.19" class="ty">INT</tspan></text><text x="13" y="86" class="tf">title<tspan x="220.19" class="ty">VARCHAR(30)</tspan></text><text x="13" y="111" class="tf">from_date<tspan x="220.19" class="ty">DATE</tspan></text><text x="13" y="136" class="tf">to-date<tspan x="220.19" class="ty">DATE</tspan></text><text x="13" y="161" class="tf">PRIMARY<tspan x="220.19" class="ty">KEY(emp_no,from_date)</tspan></text><text x="13" y="186" class="tf">...</text></svg><svg width="233.19" height="200" x="810.36" y="31.83" id="h3858243705" class="t"><rect height="40" width="233.19" class="th"></rect><text x="13" y="25" class="tht">Salaries</text><rect height="160" width="233.19" class="t-bg"></rect><text x="13" y="61" class="tf">emp_no<tspan x="220.19" class="ty">INT</tspan></text><text x="13" y="86" class="tf">salary<tspan x="220.19" class="ty">INT</tspan></text><text x="13" y="111" class="tf">from_date<tspan x="220.19" class="ty">DATE</tspan></text><text x="13" y="136" class="tf">to_date<tspan x="220.19" class="ty">DATE</tspan></text><text x="13" y="161" class="tf">PRIMARY<tspan x="220.19" class="ty">KEY(emp_no,from_date)</tspan></text><text x="13" y="186" class="tf">...</text></svg></g></g><text class="qdbd-link" x="10" y="20">www.quickdatabasediagrams.com</text></svg>